<?xml version="1.0" encoding="utf-8"?>
<!-- Generator: Adobe Illustrator 20.1.0, SVG Export Plug-In . SVG Version: 6.00 Build 0)  -->
<svg version="1.1" id="Layer_1" xmlns="http://www.w3.org/2000/svg" xmlns:xlink="http://www.w3.org/1999/xlink" x="0px" y="0px"
	 viewBox="0 0 280 226" style="enable-background:new 0 0 280 226;" xml:space="preserve">
<style type="text/css">
	.st0{fill:#FFFFFF;}
</style>
<desc>Created with Sketch.</desc>
<g id="Page-1">
	<g id="minimal" transform="translate(-129.000000, -1094.000000)">
		<g id="Middle-section" transform="translate(43.000000, 942.000000)">
			<g id="feedback" transform="translate(86.000000, 152.000000)">
				<g id="_x30_09-networking" transform="translate(0.000000, 67.000000)">
					<path id="Shape" class="st0" d="M109.5,34c4.4-3.5,7.2-8.9,7.2-14.9c0-10.5-8.5-19-18.9-19s-18.9,8.5-18.9,19
						c0,6.1,2.8,11.4,7.3,14.9c-13.4,5.3-23,19.3-23,35.7v3.2h69.4v-3.2h0C132.5,53.3,122.9,39.2,109.5,34z M85.2,19.1
						c0-7,5.7-12.7,12.6-12.7s12.6,5.7,12.6,12.7s-5.7,12.7-12.6,12.7S85.2,26.1,85.2,19.1z M69.6,66.5C71,50.6,83.1,38.1,97.8,38.1
						s26.8,12.5,28.3,28.5H69.6z"/>
					<path id="Shape_1_" class="st0" d="M46.4,119.4c4.4-3.5,7.2-8.9,7.2-14.9c0-10.5-8.5-19-18.9-19s-18.9,8.5-18.9,19
						c0,6.1,2.8,11.4,7.3,14.9c-13.4,5.3-23,19.3-23,35.7v3.2h69.4v-3.2C69.4,138.7,59.8,124.7,46.4,119.4z M22.1,104.5
						c0-7,5.7-12.7,12.6-12.7s12.6,5.7,12.6,12.7c0,7-5.7,12.7-12.6,12.7S22.1,111.5,22.1,104.5z M6.5,152
						C7.9,136,20,123.5,34.7,123.5S61.5,136,63,152H6.5z"/>
					<path id="Shape_2_" class="st0" d="M172.6,119.4c4.4-3.5,7.2-8.9,7.2-14.9c0-10.5-8.5-19-18.9-19s-18.9,8.5-18.9,19
						c0,6.1,2.8,11.4,7.3,14.9c-13.4,5.3-23,19.3-23,35.7v3.2h69.4v-3.2C195.6,138.7,186,124.7,172.6,119.4z M148.3,104.5
						c0-7,5.7-12.7,12.6-12.7c7,0,12.6,5.7,12.6,12.7c0,7-5.7,12.7-12.6,12.7C154,117.2,148.3,111.5,148.3,104.5z M132.7,152
						c1.4-15.9,13.6-28.5,28.3-28.5c14.7,0,26.8,12.5,28.3,28.5H132.7z"/>
					<polygon id="Shape_3_" class="st0" points="101,112.7 101,79.2 94.7,79.2 94.7,112.7 70.3,137.1 74.8,141.6 97.8,118.5 
						120.8,141.6 125.3,137.1 					"/>
				</g>
				<g id="_x30_10-chat" transform="translate(152.000000, 0.000000)">
					<path id="Shape_4_" class="st0" d="M109,18.7C96.9,6.6,80.9,0,63.8,0S30.7,6.6,18.7,18.7c-23.3,23.3-24.9,60.7-4,85.9
						c-2.1,4.1-5.3,8.9-10.2,11.3c-2.3,1.2-3.7,3.7-3.3,6.3c0.4,2.6,2.4,4.6,5,5c1.2,0.2,2.9,0.4,5,0.4c5.6,0,14-1.3,22.5-7.5
						c9.5,5.1,19.8,7.6,30.1,7.6c16.5,0,32.9-6.4,45.2-18.7c12.1-12.1,18.7-28.1,18.7-45.1S121,30.8,109,18.7z M103.8,103.8
						c-18.2,18.2-46.4,21.8-68.6,8.8c-1.5-0.9-3.3-0.6-4.4,0.6c-0.1,0.1-0.2,0.1-0.3,0.2c-7.3,5.7-14.5,6.9-19.3,6.9h0
						c5.5-4,8.9-9.9,11-14.6c0.3-0.8,0.4-1.6,0.2-2.3c-0.1-0.7-0.4-1.5-0.9-2.1C1.7,79,2.7,45,23.8,23.9c22.1-22.1,57.9-22.1,80,0
						C125.9,45.9,125.9,81.8,103.8,103.8z"/>
					<circle id="Oval" class="st0" cx="64.5" cy="63.6" r="4.5"/>
					<circle id="Oval_1_" class="st0" cx="87.2" cy="63.6" r="4.5"/>
					<circle id="Oval_2_" class="st0" cx="40.9" cy="63.6" r="4.5"/>
				</g>
			</g>
		</g>
	</g>
</g>
</svg>
