
<svg width="280px" height="226px" viewBox="0 0 280 226" version="1.1" xmlns="http://www.w3.org/2000/svg" xmlns:xlink="http://www.w3.org/1999/xlink">
    <!-- Generator: Sketch 46.2 (44496) - http://www.bohemiancoding.com/sketch -->
    <desc>Created with Sketch.</desc>
    <defs>
        <linearGradient x1="50%" y1="0%" x2="50%" y2="100%" id="linearGradient-1">
            <stop stop-color="#00D2FF" offset="0%"></stop>
            <stop stop-color="#3A7BD5" offset="100%"></stop>
        </linearGradient>
    </defs>
    <g id="Page-1" stroke="none" stroke-width="1" fill="none" fill-rule="evenodd">
        <g id="minimal" transform="translate(-129.000000, -1094.000000)" fill-rule="nonzero" fill="url(#linearGradient-1)">
            <g id="Middle-section" transform="translate(43.000000, 942.000000)">
                <g id="feedback" transform="translate(86.000000, 152.000000)">
                    <g id="009-networking" transform="translate(0.000000, 67.000000)">
                        <path d="M109.475235,33.9989216 C113.865027,30.5239617 116.71454,25.1184686 116.71454,19.0952049 C116.71454,8.63171471 108.204506,0.098757764 97.769125,0.098757764 C87.3337438,0.098757764 78.8237097,8.63171471 78.8237097,19.0952049 C78.8237097,25.1570793 81.6732233,30.5239617 86.1015216,33.9989216 C72.7011059,39.249972 63.0743705,53.2656434 63.0743705,69.7137866 L63.0743705,72.8798611 L132.463879,72.8798611 L132.463879,69.7137866 L132.502386,69.7137866 C132.502386,53.2656434 122.875651,39.249972 109.475235,33.9989216 Z M85.177355,19.0952049 C85.177355,12.1066746 90.8378755,6.43090681 97.8076319,6.43090681 C104.777388,6.43090681 110.437909,12.1066746 110.437909,19.0952049 C110.437909,26.0837353 104.777388,31.759503 97.8076319,31.759503 C90.8378755,31.759503 85.177355,26.0837353 85.177355,19.0952049 Z M69.5820436,66.5477121 C71.0068005,50.6015075 83.1364871,38.0530414 97.8461389,38.0530414 C112.555791,38.0530414 124.64697,50.5628968 126.110234,66.5477121 L69.5820436,66.5477121 Z" id="Shape"></path>
                        <path d="M46.3623578,119.444323 C50.7521492,115.969363 53.6016628,110.56387 53.6016628,104.540606 C53.6016628,94.0771162 45.0916287,85.5441592 34.6562475,85.5441592 C24.2208663,85.5441592 15.7108322,94.0771162 15.7108322,104.540606 C15.7108322,110.602481 18.5603459,115.969363 22.9886442,119.444323 C9.62673542,124.695373 0,138.711045 0,155.159188 L0,158.325263 L69.3895089,158.325263 L69.3895089,155.159188 C69.3895089,138.711045 59.7627735,124.695373 46.3623578,119.444323 Z M22.0644776,104.540606 C22.0644776,97.552076 27.724998,91.8763083 34.6947545,91.8763083 C41.6645109,91.8763083 47.3250313,97.552076 47.3250313,104.540606 C47.3250313,111.529137 41.6645109,117.204904 34.6947545,117.204904 C27.724998,117.204904 22.0644776,111.529137 22.0644776,104.540606 Z M6.46916621,151.993114 C7.89392305,136.046909 20.0236097,123.498443 34.7332614,123.498443 C49.4429131,123.498443 61.5340928,136.008298 62.9973566,151.993114 L6.46916621,151.993114 Z" id="Shape"></path>
                        <path d="M172.588113,119.444323 C176.977904,115.969363 179.827418,110.56387 179.827418,104.540606 C179.827418,94.0771162 171.317384,85.5441592 160.882002,85.5441592 C150.446621,85.5441592 141.936587,94.0771162 141.936587,104.540606 C141.936587,110.602481 144.786101,115.969363 149.214399,119.444323 C135.813983,124.695373 126.187248,138.711045 126.187248,155.159188 L126.187248,158.325263 L195.615264,158.325263 L195.615264,155.159188 C195.615264,138.711045 185.988528,124.695373 172.588113,119.444323 Z M148.290232,104.540606 C148.290232,97.552076 153.950753,91.8763083 160.920509,91.8763083 C167.890266,91.8763083 173.550786,97.552076 173.550786,104.540606 C173.550786,111.529137 167.890266,117.204904 160.920509,117.204904 C153.950753,117.204904 148.290232,111.529137 148.290232,104.540606 Z M132.656414,151.993114 C134.081171,136.046909 146.210858,123.498443 160.920509,123.498443 C175.630161,123.498443 187.721341,136.008298 189.184605,151.993114 L132.656414,151.993114 Z" id="Shape"></path>
                        <polygon id="Shape" points="100.965201 112.687457 100.965201 79.2120102 94.6500627 79.2120102 94.6500627 112.687457 70.3136755 137.089397 74.7804808 141.568234 97.8076319 118.479056 120.834783 141.568234 125.301588 137.089397"></polygon>
                    </g>
                    <g id="010-chat" transform="translate(152.000000, 0.000000)">
                        <path d="M108.965912,18.7117048 C96.8964578,6.64225018 80.8848547,0 63.820212,0 C46.7555693,0 30.7439662,6.64225018 18.6745116,18.7117048 C-4.65436704,42.0405834 -6.27442805,79.3829899 14.6513601,104.574939 C12.5992828,108.706094 9.30515874,113.512275 4.41797467,115.915366 C2.06888619,117.07641 0.745836359,119.587504 1.15085161,122.179602 C1.55586687,124.771699 3.55394212,126.796776 6.14603975,127.201791 C7.36108552,127.390798 9.08915061,127.579805 11.1952299,127.579805 C16.8384425,127.579805 25.1547557,126.256755 33.6600761,120.127525 C43.137433,125.230717 53.5058235,127.71481 63.793211,127.71481 C80.3178334,127.71481 96.6804497,121.315569 108.992913,109.003106 C121.062368,96.9336509 127.704618,80.9220479 127.704618,63.8574052 C127.704618,46.7927624 121.035367,30.7811594 108.965912,18.7117048 Z M103.808718,103.845911 C85.5830317,122.071598 57.366969,125.689734 35.172133,112.648243 C33.7140781,111.78421 31.90501,112.05422 30.7439662,113.215264 C30.6359622,113.269266 30.5279581,113.350269 30.446955,113.431272 C23.1296794,119.101486 15.9474089,120.289531 11.1952299,120.289531 L11.1682289,120.289531 C16.6494354,116.29338 20.1055655,110.353156 22.1306418,105.735982 C22.454654,104.952953 22.508656,104.142922 22.3196489,103.386894 C22.2386459,102.657867 21.9416347,101.928839 21.4286154,101.334817 C1.66387094,79.0049757 2.68990958,44.9836943 23.8047049,23.868899 C45.8645357,1.80906814 81.7488873,1.80906814 103.781717,23.868899 C125.868549,45.9287299 125.868549,81.7860804 103.808718,103.845911 Z" id="Shape"></path>
                        <circle id="Oval" cx="64.5437073" cy="63.5590919" r="4.48216882"></circle>
                        <circle id="Oval" cx="87.1898611" cy="63.5590919" r="4.48216882"></circle>
                        <circle id="Oval" cx="40.912938" cy="63.5590919" r="4.48216882"></circle>
                    </g>
                </g>
            </g>
        </g>
    </g>
</svg>