
<svg width="41px" height="40px" viewBox="0 0 41 40" version="1.1" xmlns="http://www.w3.org/2000/svg" xmlns:xlink="http://www.w3.org/1999/xlink">
    <!-- Generator: Sketch 46.2 (44496) - http://www.bohemiancoding.com/sketch -->
    <desc>Created with Sketch.</desc>
    <defs>
        <linearGradient x1="0%" y1="0%" x2="101.999998%" y2="100.999999%" id="linearGradient-1">
            <stop stop-color="#3023AE" offset="0%"></stop>
            <stop stop-color="#C86DD7" offset="100%"></stop>
        </linearGradient>
    </defs>
    <g id="Page-1" stroke="none" stroke-width="1" fill="none" fill-rule="evenodd">
        <g id="minimal" transform="translate(-1361.000000, -2199.000000)" fill="url(#linearGradient-1)">
            <g id="FOOTER" transform="translate(52.000000, 1935.000000)">
                <g id="Page-1" transform="translate(1309.000000, 264.000000)">
                    <path d="M20.4982917,0 C9.17802083,0 0,9.18046666 0,20.508177 C0,29.566941 5.87325,37.2529329 14.0202917,39.9644344 C15.0452917,40.1533714 15.4194167,39.5201771 15.4194167,38.9763448 C15.4194167,38.4895341 15.4014792,37.2001667 15.3912292,35.4895207 C9.6888125,36.7286752 8.48529167,32.7397211 8.48529167,32.7397211 C7.55425,30.3711999 6.20979167,29.7405588 6.20979167,29.7405588 C4.3485625,28.4682127 6.35072917,28.4937447 6.35072917,28.4937447 C8.4075625,28.6384262 9.48979167,30.6077967 9.48979167,30.6077967 C11.3194167,33.7414278 14.2885,32.8358918 15.457,32.3107831 C15.6423542,30.9856707 16.1727917,30.0818369 16.75875,29.5694942 C12.2060417,29.051194 7.421,27.2928882 7.421,19.4349807 C7.421,17.1958217 8.21879167,15.3660263 9.53079167,13.9319773 C9.3198125,13.4128261 8.61597917,11.3285614 9.73066667,8.50471895 C9.73066667,8.50471895 11.4526667,7.95407819 15.3681667,10.606856 C17.00475,10.1523859 18.7575,9.92515085 20.5008542,9.91578911 C22.2425,9.92515085 23.9961042,10.1523859 25.6335417,10.606856 C29.5464792,7.95407819 31.2650625,8.50471895 31.2650625,8.50471895 C32.3831667,11.3285614 31.6801875,13.4128261 31.4683542,13.9319773 C32.7829167,15.3660263 33.5764375,17.1958217 33.5764375,19.4349807 C33.5764375,27.3124628 28.7828542,29.0460876 24.2164792,29.554175 C24.9519167,30.1873693 25.6079167,31.4375877 25.6079167,33.3516388 C25.6079167,36.0929277 25.5822917,38.3040014 25.5822917,38.9763448 C25.5822917,39.5252835 25.9512917,40.1635842 26.9916667,39.9618812 C35.131875,37.2452733 41,29.5643878 41,20.508177 C41,9.18046666 31.821125,0 20.4982917,0" id="Fill-1"></path>
                </g>
            </g>
        </g>
    </g>
</svg>