
<svg width="879px" height="123px" viewBox="0 0 879 123" version="1.1" xmlns="http://www.w3.org/2000/svg" xmlns:xlink="http://www.w3.org/1999/xlink">
    <!-- Generator: Sketch 46.2 (44496) - http://www.bohemiancoding.com/sketch -->
    <desc>Created with Sketch.</desc>
    <defs>
        <linearGradient x1="0%" y1="0%" x2="101.999998%" y2="100.999999%" id="linearGradient-1">
            <stop stop-color="#3023AE" offset="0%"></stop>
            <stop stop-color="#C86DD7" offset="100%"></stop>
        </linearGradient>
    </defs>
    <g id="Page-1" stroke="none" stroke-width="1" fill="none" fill-rule="evenodd">
        <g id="minimal" transform="translate(-268.000000, -356.000000)" fill="url(#linearGradient-1)">
            <g id="Header" transform="translate(0.000000, 2.000000)">
                <g id="Group" transform="translate(268.000000, 354.000000)">
                    <text id="Idea-Nebulae" font-family="Titillium-Thin, Titillium" font-size="144" font-style="condensed" font-weight="300" line-spacing="97">
                        <tspan x="101" y="118.695652">Idea Nebulae</tspan>
                    </text>
                    <g id="008-light-bulb" fill-rule="nonzero">
                        <path d="M57.8939929,88.773913 L57.8939929,88.773913 L21.0989399,88.762673 C20.204947,88.762673 19.4487633,88.0545499 19.3427562,87.1103857 C18.9151943,83.2812754 17.6537102,77.8748115 14.0459364,73.8995805 C14.0424028,73.8920872 14.0388693,73.8883405 14.0318021,73.8808471 C5.1130742,65.8929184 0,54.2444802 0,41.8841721 C0.0035335689,18.7896165 17.7243816,0 39.5017668,0 C61.2791519,0 79,18.7896165 79,41.8841721 C79,54.3269072 73.8233216,66.0465324 64.7985866,74.0344611 C61.335689,77.8785581 60.0742049,83.2887688 59.6466431,87.1216257 C59.5477032,88.0657899 58.7915194,88.773913 57.8939929,88.773913 Z M22.6325088,85.0159897 L56.360424,85.0272298 C57.0212014,80.8047178 58.6219081,75.4656941 62.3957597,71.2993823 C70.7561837,63.8846962 75.4699647,53.2103956 75.4699647,41.8804254 C75.4664311,20.854039 59.335689,3.74668325 39.5017668,3.74668325 C19.6678445,3.74668325 3.53710247,20.854039 3.53710247,41.8841721 C3.53710247,53.2029022 8.24734982,63.8734561 16.4664311,71.1532617 C16.5724382,71.2469288 16.6678445,71.3555826 16.7491166,71.4717298 C20.4134276,75.6080681 21.9787986,80.8534246 22.6325088,85.0159897 Z" id="Shape"></path>
                        <path d="M57.2476124,100.53913 L20.7523876,100.53913 C19.7850697,100.53913 19,99.5808 19,98.4 C19,97.2192 19.7850697,96.2608696 20.7523876,96.2608696 L57.2476124,96.2608696 C58.2149303,96.2608696 59,97.2192 59,98.4 C59,99.5808 58.2184351,100.53913 57.2476124,100.53913 Z" id="Shape"></path>
                        <path d="M57.2476124,112.304348 L20.7523876,112.304348 C19.7850697,112.304348 19,111.346017 19,110.165217 C19,108.984417 19.7850697,108.026087 20.7523876,108.026087 L57.2476124,108.026087 C58.2149303,108.026087 59,108.984417 59,110.165217 C59,111.346017 58.2184351,112.304348 57.2476124,112.304348 Z" id="Shape"></path>
                        <path d="M47.2276119,123 L31.7723881,123 C30.7940299,123 30,122.04167 30,120.86087 C30,119.68007 30.7940299,118.721739 31.7723881,118.721739 L47.2276119,118.721739 C48.2059701,118.721739 49,119.68007 49,120.86087 C49,122.04167 48.2059701,123 47.2276119,123 Z" id="Shape"></path>
                    </g>
                </g>
            </g>
        </g>
    </g>
</svg>