<svg id="Layer_1" data-name="Layer 1" xmlns="http://www.w3.org/2000/svg" xmlns:xlink="http://www.w3.org/1999/xlink" viewBox="0 0 878.78 123"><defs><style>.cls-1{fill-rule:evenodd;fill:url(#linear-gradient);}.cls-2{fill:url(#linear-gradient-2);}.cls-3{fill:url(#linear-gradient-3);}.cls-4{fill:url(#linear-gradient-4);}.cls-5{fill:url(#linear-gradient-5);}</style><linearGradient id="linear-gradient" x1="403.78" y1="371.53" x2="807.9" y2="-32.59" gradientUnits="userSpaceOnUse"><stop offset="0" stop-color="#3023ae"/><stop offset="1" stop-color="#c86dd7"/></linearGradient><linearGradient id="linear-gradient-2" x1="121.86" y1="179.26" x2="183.62" y2="117.49" xlink:href="#linear-gradient"/><linearGradient id="linear-gradient-3" x1="141.73" y1="211.18" x2="162.74" y2="190.16" xlink:href="#linear-gradient"/><linearGradient id="linear-gradient-4" x1="141.73" y1="222.94" x2="162.74" y2="201.93" xlink:href="#linear-gradient"/><linearGradient id="linear-gradient-5" x1="147.48" y1="228.38" x2="157.99" y2="217.88" xlink:href="#linear-gradient"/></defs><title>idea-nebulae-logo</title><path class="cls-1" d="M940.9,171.37c0-21.89,9.36-30.1,23.76-30.1,15,0,22,8.06,22,30.1Zm21.89,35.28c-16.7,0-21.89-10.8-21.89-30.67H992v-4.75c0-24.91-9.65-34.56-27.36-34.56-16.42,0-29.09,8.78-29.09,37.3,0,23.47,5.62,37.15,27.07,37.3,10.51,0,26.64-1.3,26.64-1.3l-.29-4.61S972.87,206.65,962.79,206.65Zm-52.7-35.42v29.52s-14.69,5.9-28.22,5.9c-8.78,0-13.68-5.9-13.68-16.42,0-9.94,3.89-15.12,15.12-16.27Zm5-12.1c0-14.83-6.48-22.46-21-22.46-11.52,0-27.65,2.59-27.65,2.59l.43,4.75s16.7-2.45,27.22-2.45,16,5,16,17.57v7.49l-27.36,2.88c-14.11,1.44-19.87,8.5-19.87,20.74,0,14,7.06,21,18.86,21,14.4,0,29.09-6.19,29.09-6.19,3.17,4.46,8.64,6,14.83,6l.29-4.46c-5-.43-10.37-1.87-10.8-6ZM838.66,210h5V104.85h-5ZM810,138v61.49s-10.8,7.2-23.62,7.2c-16,0-18.58-7.06-18.58-31.54V138h-5v37.44c0,27.94,4,35.86,23.62,35.86,12.38,0,23.62-7.06,23.62-7.06V210h5V138Zm-99.36,68.69c-5,0-16.27-.86-16.27-.86V147s12-5.76,24.77-5.76c16,0,19.15,10.22,19.15,31.54C738.29,196,734.69,206.65,710.65,206.65Zm8.5-70c-12.82,0-24.77,5.76-24.77,5.76V104.85h-5V210s11.66,1.3,21.46,1.3c26.78,0,32.83-11.52,32.83-38.45C743.62,148,738.73,136.67,719.14,136.67Zm-99.65,34.7c0-21.89,9.36-30.1,23.76-30.1,15,0,22,8.06,22,30.1Zm21.89,35.28c-16.7,0-21.89-10.8-21.89-30.67h51.12v-4.75c0-24.91-9.65-34.56-27.36-34.56-16.42,0-29.09,8.78-29.09,37.3,0,23.47,5.62,37.15,27.07,37.3,10.51,0,26.64-1.3,26.64-1.3l-.29-4.61S651.46,206.65,641.38,206.65ZM523.3,210h5.18v-95.9h3.74l48.1,95.9h12.24V109.17h-5.18v95.9h-3.89l-48-95.9H523.3Zm-62.06-38.74v29.52s-14.69,5.9-28.22,5.9c-8.78,0-13.68-5.9-13.68-16.42,0-9.94,3.89-15.12,15.12-16.27Zm5-12.1c0-14.83-6.48-22.46-21-22.46-11.52,0-27.65,2.59-27.65,2.59L418,144s16.7-2.45,27.22-2.45,16,5,16,17.57v7.49l-27.36,2.88C419.77,170.94,414,178,414,190.24c0,14,7.06,21,18.86,21,14.4,0,29.09-6.19,29.09-6.19,3.17,4.46,8.64,6,14.83,6l.29-4.46c-5-.43-10.37-1.87-10.8-6ZM348.49,171.37c0-21.89,9.36-30.1,23.76-30.1,15,0,22,8.06,22,30.1Zm21.89,35.28c-16.7,0-21.89-10.8-21.89-30.67h51.12v-4.75c0-24.91-9.65-34.56-27.36-34.56-16.42,0-29.09,8.78-29.09,37.3,0,23.47,5.62,37.15,27.07,37.3,10.51,0,26.64-1.3,26.64-1.3l-.29-4.61S380.45,206.65,370.37,206.65Zm-76.9,0c-8.06,0-19.15-2.45-19.15-31.54,0-21.46,4.61-33.84,25.06-33.84a162.72,162.72,0,0,1,19,1.73v56.16S305.86,206.65,293.48,206.65Zm30-101.81h-5V138.4a139.19,139.19,0,0,0-19-1.73c-23.62,0-30.38,13.68-30.38,38.45,0,35,15.55,36.14,24.48,36.14,13.1,0,24.91-7.34,24.91-7.34v6h5ZM242.21,210h5.18V109.17h-5.18Z" transform="translate(-113.24 -102.27)"/><path class="cls-2" d="M135.87,187.29H169.6c.66-4.22,2.26-9.56,6-13.73a39.16,39.16,0,0,0,13.07-29.42c0-21-16.13-38.13-36-38.13s-36,17.11-36,38.14a39,39,0,0,0,12.93,29.27,1.82,1.82,0,0,1,.28.32C133.65,177.88,135.22,183.12,135.87,187.29ZM171.13,191h-36.8a1.81,1.81,0,0,1-1.76-1.65c-.43-3.83-1.69-9.24-5.3-13.21v0a42.86,42.86,0,0,1-14-32c0-23.09,17.72-41.88,39.5-41.88s39.5,18.79,39.5,41.88A42.83,42.83,0,0,1,178,176.3c-3.46,3.84-4.72,9.25-5.15,13.09A1.8,1.8,0,0,1,171.13,191Z" transform="translate(-113.24 -102.27)"/><path class="cls-3" d="M170.48,202.81H134a2.18,2.18,0,0,1,0-4.28h36.5a2.18,2.18,0,0,1,0,4.28Z" transform="translate(-113.24 -102.27)"/><path class="cls-4" d="M170.48,214.57H134a2.18,2.18,0,0,1,0-4.28h36.5a2.18,2.18,0,0,1,0,4.28Z" transform="translate(-113.24 -102.27)"/><path class="cls-5" d="M160.46,225.27H145a2.18,2.18,0,0,1,0-4.28h15.46a2.18,2.18,0,0,1,0,4.28Z" transform="translate(-113.24 -102.27)"/></svg>