<?xml version="1.0" encoding="utf-8"?>
<!-- Generator: Adobe Illustrator 20.1.0, SVG Export Plug-In . SVG Version: 6.00 Build 0)  -->
<svg version="1.1" id="Layer_1" xmlns="http://www.w3.org/2000/svg" xmlns:xlink="http://www.w3.org/1999/xlink" x="0px" y="0px"
	 viewBox="0 0 263 263" style="enable-background:new 0 0 263 263;" xml:space="preserve">
<style type="text/css">
	.st0{fill:none;stroke:#FFFFFF;stroke-width:8;stroke-linecap:round;stroke-linejoin:round;}
	.st1{fill:none;stroke:#FFFFFF;stroke-miterlimit:10;}
</style>
<desc>Created with Sketch.</desc>
<g id="Page-1">
	<g id="minimal" transform="translate(-1035.000000, -1154.000000)">
		<g id="Middle-section" transform="translate(43.000000, 942.000000)">
			<g id="rocket_1_" transform="translate(997.000000, 216.000000)">
				<g id="Group-2">
					<path id="rocket" class="st0" d="M56,197.3l-43.6,43.6L56,197.3z M49.2,231.3l20.4-20.4L49.2,231.3z M29.9,250.6l-3.9,3.9
						L29.9,250.6z M17.1,208.6L0,225.7L17.1,208.6z M42.9,182.8l-3.9,3.9L42.9,182.8z M199,5.2c0.7,12.4,5.7,24.7,15,34.3
						c0.2,0.2,0.4,0.4,0.6,0.6l-1-1c0.2,0.2,0.4,0.4,0.6,0.6c9.6,9.3,21.9,14.3,34.3,15 M61.6,145l-20.9,11.4l27.8,27.8l0.9,0.9
						L97.3,213l11.4-20.9L61.6,145z M121.2,204.6l7.7,35.7l45.5-45.5l5.9-49.2L121.2,204.6z M85.7,169l35.6,35.6
						c0,0,100.3-99.7,107-108.7c33.4-44.4,24.4-94.9,24.4-94.9s-50.4-8.9-94.8,24.4c-9,6.7-108.7,107-108.7,107l35.6,35.6 M145.5,72
						c-9.9,9.9-9.9,25.9,0,35.8c9.9,9.9,25.9,9.9,35.8,0c9.9-9.9,9.9-25.9,0-35.8C171.4,62.1,155.4,62.1,145.5,72z M108.2,73.4
						l-49.2,5.9l-45.5,45.5l35.7,7.7L108.2,73.4z"/>
					<path id="Oval-2" class="st1" d="M28,202c2.2,0,4-1.8,4-4s-1.8-4-4-4s-4,1.8-4,4S25.8,202,28,202z"/>
					<circle id="Oval-2-Copy" class="st1" cx="40" cy="241" r="4"/>
				</g>
			</g>
		</g>
	</g>
</g>
</svg>
