
<svg width="263px" height="263px" viewBox="0 0 263 263" version="1.1" xmlns="http://www.w3.org/2000/svg" xmlns:xlink="http://www.w3.org/1999/xlink">
    <!-- Generator: Sketch 46.2 (44496) - http://www.bohemiancoding.com/sketch -->
    <desc>Created with Sketch.</desc>
    <defs>
        <linearGradient x1="50%" y1="0%" x2="50%" y2="100%" id="linearGradient-1">
            <stop stop-color="#00D2FF" offset="0%"></stop>
            <stop stop-color="#3A7BD5" offset="100%"></stop>
        </linearGradient>
        <linearGradient x1="50%" y1="0%" x2="50%" y2="100%" id="linearGradient-2">
            <stop stop-color="#00D2FF" offset="0%"></stop>
            <stop stop-color="#19ACED" offset="0%"></stop>
            <stop stop-color="#3A7BD5" offset="100%"></stop>
        </linearGradient>
    </defs>
    <g id="Page-1" stroke="none" stroke-width="1" fill="none" fill-rule="evenodd">
        <g id="minimal" transform="translate(-1035.000000, -1154.000000)">
            <g id="Middle-section" transform="translate(43.000000, 942.000000)">
                <g id="rocket" transform="translate(997.000000, 216.000000)">
                    <g id="Group-2">
                        <path d="M55.966,197.326266 L12.382,240.910266 L55.966,197.326266 Z M49.17,231.331266 L69.571,210.931266 L49.17,231.331266 Z M29.875,250.626266 L25.986,254.515266 L29.875,250.626266 Z M17.068,208.632266 L0,225.700266 L17.068,208.632266 Z M42.877,182.823266 L38.988,186.712266 L42.877,182.823266 Z M198.994,5.1612656 C199.681,17.6092656 204.688,29.8622656 214.013,39.4842656 C214.211,39.6882656 214.411,39.8912656 214.613,40.0932656 L213.643,39.1242656 C213.845,39.3262656 214.049,39.5262656 214.253,39.7242656 C223.875,49.0492656 236.128,54.0552656 248.575,54.7422656 M61.628,145.006266 L40.769,156.437266 L68.56,184.228266 L69.509,185.177266 L97.3,212.968266 L108.731,192.108266 L61.628,145.006266 Z M121.223,204.601266 L128.884,240.310266 L174.374,194.819266 L180.314,145.578266 L121.223,204.601266 Z M85.654,169.031266 L121.223,204.601266 C121.223,204.601266 221.513,104.893266 228.232,95.9422656 C261.584,51.5122656 252.631,1.0872656 252.631,1.0872656 C252.631,1.0872656 202.225,-7.8467344 157.795,25.5042656 C148.844,32.2242656 49.136,132.513266 49.136,132.513266 L84.705,168.083266 M145.513,71.9632656 C135.622,81.8542656 135.622,97.8892656 145.513,107.779266 C155.403,117.670266 171.438,117.670266 181.329,107.779266 C191.219,97.8892656 191.219,81.8542656 181.329,71.9632656 C171.438,62.0732656 155.403,62.0732656 145.513,71.9632656 Z M108.158,73.4232656 L58.918,79.3622656 L13.427,124.853266 L49.136,132.513266 L108.158,73.4232656 Z" id="rocket" stroke="url(#linearGradient-1)" stroke-width="8" stroke-linecap="round" stroke-linejoin="round"></path>
                        <path d="M28,202 C30.209139,202 32,200.209139 32,198 C32,195.790861 30.209139,194 28,194 C25.790861,194 24,195.790861 24,198 C24,200.209139 25.790861,202 28,202 Z" id="Oval-2" fill="url(#linearGradient-2)"></path>
                        <circle id="Oval-2-Copy" fill="url(#linearGradient-2)" cx="40" cy="241" r="4"></circle>
                    </g>
                </g>
            </g>
        </g>
    </g>
</svg>