<?xml version="1.0" encoding="utf-8"?>
<!-- Generator: Adobe Illustrator 20.1.0, SVG Export Plug-In . SVG Version: 6.00 Build 0)  -->
<svg version="1.1" id="Layer_1" xmlns="http://www.w3.org/2000/svg" xmlns:xlink="http://www.w3.org/1999/xlink" x="0px" y="0px"
	 viewBox="0 0 201 244" style="enable-background:new 0 0 201 244;" xml:space="preserve">
<style type="text/css">
	.st0{fill:none;stroke:#FFFFFF;stroke-width:8;stroke-linecap:round;stroke-linejoin:round;}
	.st1{fill:#FFFFFF;}
</style>
<desc>Created with Sketch.</desc>
<g id="Page-1">
	<g id="minimal" transform="translate(-618.000000, -1150.000000)">
		<g id="Middle-section" transform="translate(43.000000, 942.000000)">
			<g id="security" transform="translate(579.000000, 212.000000)">
				<path id="Shape" class="st0" d="M96.7,236h-0.4C-2.4,202.7-0.1,106.2,0,101.9V31.5L96.4,0h0.1h0.1L193,31.5v70.6
					C193,103.1,195.6,202.7,96.7,236z"/>
				<path id="Shape_1_" class="st1" d="M168.8,66.8l-80.7,90.8l-48.6-38.9c-2.3-1.8-5.6-1.4-7.4,0.8c-1.8,2.3-1.4,5.6,0.8,7.4
					l52.5,42c1,0.8,2.1,1.1,3.3,1.1c1.4,0,2.9-0.6,3.9-1.8l84-94.5c1.9-2.2,1.7-5.5-0.4-7.4C174.1,64.4,170.8,64.6,168.8,66.8z"/>
			</g>
		</g>
	</g>
</g>
</svg>
