<?xml version="1.0" standalone="no"?>
<!DOCTYPE svg PUBLIC "-//W3C//DTD SVG 20010904//EN"
 "http://www.w3.org/TR/2001/REC-SVG-20010904/DTD/svg10.dtd">
<svg version="1.0" xmlns="http://www.w3.org/2000/svg"
 width="512.000000pt" height="512.000000pt" viewBox="0 0 512.000000 512.000000"
 preserveAspectRatio="xMidYMid meet">
<metadata>
Created by potrace 1.11, written by Peter Selinger 2001-2013
</metadata>
<g transform="translate(0.000000,512.000000) scale(0.100000,-0.100000)"
fill="#000000" stroke="none">
<path d="M2446 5043 c-1 -2 -23 -6 -47 -9 -141 -18 -300 -68 -444 -140 -131
-65 -128 -63 -235 -138 -85 -60 -243 -210 -317 -302 -138 -170 -264 -424 -319
-644 -18 -72 -18 -75 -29 -140 -4 -25 -10 -54 -12 -65 -12 -48 -10 -375 2
-460 19 -129 23 -150 52 -250 50 -176 120 -328 221 -481 73 -112 82 -122 206
-251 55 -57 114 -125 132 -152 60 -89 105 -203 129 -331 25 -132 34 -159 55
-170 26 -14 1524 -14 1550 0 21 11 30 40 54 165 21 109 24 118 47 178 42 106
93 182 194 287 171 177 257 298 345 482 52 108 115 290 125 361 4 23 9 45 11
49 13 21 31 221 31 349 1 288 -67 562 -198 808 -45 84 -122 208 -138 221 -4 3
-30 34 -58 70 -84 107 -208 219 -347 314 -119 81 -353 186 -473 211 -159 34
-239 43 -381 42 -84 0 -154 -2 -156 -4z"/>
<path d="M1823 1182 c-43 -35 -35 -128 13 -146 22 -8 1511 -9 1525 -1 5 4 16
20 25 37 13 26 14 38 5 69 -7 21 -20 43 -31 49 -12 6 -279 10 -767 10 -694 0
-750 -2 -770 -18z"/>
<path d="M1832 723 c-17 -7 -34 -41 -39 -77 -2 -22 4 -40 20 -60 l24 -29 751
0 c823 0 791 -3 806 58 9 35 -10 92 -34 105 -19 10 -1503 13 -1528 3z"/>
<path d="M2272 293 c-26 -10 -40 -58 -33 -113 0 -5 11 -18 23 -30 21 -19 33
-20 352 -20 263 1 335 3 349 14 41 31 39 124 -3 146 -19 10 -663 13 -688 3z"/>
</g>
</svg>
