<?xml version="1.0" standalone="no"?><!-- Generator: Gravit.io --><svg xmlns="http://www.w3.org/2000/svg" xmlns:xlink="http://www.w3.org/1999/xlink" style="isolation:isolate" viewBox="910 671.11 74.818 75.78" width="74.818" height="75.78"><path d=" M 947.336 671.123 C 947.214 671.147 947.091 671.182 946.979 671.214 C 945.649 671.52 944.715 672.739 944.746 674.128 L 944.746 682.87 C 944.734 683.919 945.272 684.895 946.164 685.431 C 947.059 685.956 948.151 685.956 949.046 685.431 C 949.939 684.895 950.476 683.916 950.465 682.87 L 950.465 674.128 C 950.494 673.289 950.167 672.479 949.568 671.904 C 948.969 671.328 948.156 671.044 947.336 671.123 Z  M 922.762 681.413 C 921.696 681.607 920.832 682.402 920.532 683.462 C 920.228 684.531 920.54 685.67 921.332 686.422 L 927.411 692.615 C 928.101 693.479 929.212 693.868 930.277 693.619 C 931.342 693.369 932.174 692.524 932.424 691.44 C 932.667 690.353 932.282 689.219 931.432 688.517 L 925.356 682.325 C 924.757 681.676 923.901 681.341 923.031 681.413 L 922.765 681.413 L 922.762 681.413 Z  M 971.554 681.413 C 970.902 681.51 970.302 681.832 969.855 682.325 L 963.779 688.515 C 962.927 689.217 962.542 690.352 962.786 691.44 C 963.036 692.524 963.869 693.369 964.934 693.619 C 965.999 693.868 967.11 693.479 967.799 692.615 L 973.875 686.422 C 974.775 685.556 975.026 684.198 974.497 683.058 C 973.968 681.917 972.779 681.253 971.551 681.413 L 971.554 681.413 Z  M 947.605 691.977 C 943.196 691.975 938.967 693.759 935.85 696.936 C 932.732 700.113 930.981 704.423 930.983 708.916 C 930.983 718.521 939.115 724.11 939.115 729.041 L 939.115 730.224 C 939.115 731.419 940.099 732.41 941.26 732.41 L 953.95 732.41 C 955.111 732.41 956.095 731.419 956.095 730.224 L 956.095 729.041 C 956.095 724.099 964.228 718.681 964.228 708.913 C 964.228 704.421 962.477 700.112 959.36 696.935 C 956.242 693.759 952.014 691.975 947.605 691.977 L 947.605 691.977 Z  M 947.605 697.624 C 949.704 697.624 951.66 698.227 953.324 699.262 C 953.124 699.25 952.901 699.171 952.698 699.171 C 944.892 699.171 938.581 705.612 938.581 713.468 C 938.581 713.958 938.624 714.447 938.669 714.925 C 937.354 713.067 936.636 710.84 936.613 708.549 C 936.613 702.482 941.56 697.621 947.605 697.621 L 947.605 697.624 Z  M 912.488 706.183 C 910.912 706.41 909.806 707.902 910.029 709.505 C 910.252 711.111 911.716 712.238 913.291 712.011 L 921.87 712.011 C 922.899 712.023 923.857 711.475 924.383 710.566 C 924.897 709.656 924.897 708.537 924.383 707.628 C 923.857 706.719 922.896 706.171 921.87 706.183 L 912.488 706.183 Z  M 972.537 706.183 C 970.962 706.41 969.855 707.902 970.078 709.505 C 970.301 711.111 971.765 712.238 973.341 712.011 L 981.919 712.011 C 982.949 712.023 983.907 711.475 984.433 710.566 C 984.946 709.656 984.946 708.537 984.433 707.628 C 983.907 706.719 982.946 706.171 981.919 706.183 L 972.537 706.183 Z  M 929.104 724.67 C 928.454 724.766 927.855 725.087 927.409 725.579 L 921.332 731.772 C 920.48 732.473 920.094 733.608 920.337 734.697 C 920.583 735.778 921.421 736.632 922.482 736.883 C 923.554 737.133 924.661 736.737 925.353 735.869 L 931.429 729.676 C 932.27 728.84 932.525 727.565 932.071 726.46 C 931.618 725.355 930.548 724.644 929.373 724.667 L 929.104 724.667 L 929.104 724.67 Z  M 965.205 724.67 C 964.139 724.863 963.273 725.658 962.972 726.718 C 962.672 727.788 962.984 728.927 963.776 729.676 L 969.852 735.869 C 970.544 736.734 971.654 737.133 972.723 736.883 C 973.784 736.632 974.622 735.778 974.868 734.697 C 975.111 733.608 974.725 732.473 973.873 731.772 L 967.796 725.579 C 967.261 725.004 966.52 724.676 965.743 724.67 L 965.205 724.67 Z  M 941.171 735.324 C 939.999 735.324 939.027 736.303 939.027 737.509 L 939.027 741.881 C 939.027 743.087 939.999 744.066 941.171 744.066 L 942.959 744.066 C 943.896 745.739 945.584 746.89 947.605 746.89 C 949.627 746.89 951.314 745.739 952.252 744.066 L 954.039 744.066 C 955.212 744.066 956.184 743.087 956.184 741.881 L 956.184 737.509 C 956.184 736.303 955.212 735.324 954.039 735.324 L 941.171 735.324 Z " fill="rgb(0,0,0)"/></svg>