<?xml version="1.0" standalone="no"?><!-- Generator: Gravit.io --><svg xmlns="http://www.w3.org/2000/svg" xmlns:xlink="http://www.w3.org/1999/xlink" style="isolation:isolate" viewBox="337.589 770.764 67.822 71" width="67.822" height="71"><g id="Group"><path d=" M 337.589 770.764 L 405.411 770.764 L 405.411 841.764 L 337.589 841.764 L 337.589 770.764 Z " fill="none"/><path d=" M 388.456 794.43 L 385.63 794.43 L 385.63 788.514 C 385.63 780.349 379.3 773.722 371.5 773.722 C 363.7 773.722 357.37 780.349 357.37 788.514 L 357.37 794.43 L 354.544 794.43 C 351.436 794.43 348.893 797.093 348.893 800.347 L 348.893 829.93 C 348.893 833.185 351.436 835.847 354.544 835.847 L 388.456 835.847 C 391.564 835.847 394.107 833.185 394.107 829.93 L 394.107 800.347 C 394.107 797.093 391.564 794.43 388.456 794.43 Z  M 371.5 821.055 C 368.391 821.055 365.848 818.393 365.848 815.139 C 365.848 811.885 368.391 809.222 371.5 809.222 C 374.609 809.222 377.152 811.885 377.152 815.139 C 377.152 818.393 374.609 821.055 371.5 821.055 Z  M 380.26 794.43 L 362.74 794.43 L 362.74 788.514 C 362.74 783.455 366.668 779.343 371.5 779.343 C 376.332 779.343 380.26 783.455 380.26 788.514 L 380.26 794.43 Z " fill="rgb(0,0,0)"/></g></svg>