<?xml version="1.0" standalone="no"?><!-- Generator: Gravit.io --><svg xmlns="http://www.w3.org/2000/svg" xmlns:xlink="http://www.w3.org/1999/xlink" style="isolation:isolate" viewBox="329 560.382 85 76" width="85" height="76"><path d=" M 341.75 560.382 C 336.935 560.382 333.25 563.676 333.25 567.982 C 333.25 572.287 336.935 575.582 341.75 575.582 C 346.565 575.582 350.25 572.287 350.25 567.982 C 350.25 563.676 346.565 560.382 341.75 560.382 Z  M 371.5 560.382 C 366.685 560.382 363 563.676 363 567.982 C 363 572.287 366.685 575.582 371.5 575.582 C 376.315 575.582 380 572.287 380 567.982 C 380 563.676 376.315 560.382 371.5 560.382 Z  M 401.25 560.382 C 396.435 560.382 392.75 563.676 392.75 567.982 C 392.75 572.287 396.435 575.582 401.25 575.582 C 406.065 575.582 409.75 572.287 409.75 567.982 C 409.75 563.676 406.065 560.382 401.25 560.382 Z  M 341.75 579.382 C 331.975 579.382 329 586.982 329 586.982 L 329 590.782 L 354.5 590.782 L 354.5 586.982 C 354.5 586.982 351.525 579.382 341.75 579.382 Z  M 371.5 579.382 C 361.725 579.382 358.75 586.982 358.75 586.982 L 358.75 590.782 L 384.25 590.782 L 384.25 586.982 C 384.25 586.982 381.275 579.382 371.5 579.382 Z  M 401.25 579.382 C 391.475 579.382 388.5 586.982 388.5 586.982 L 388.5 590.782 L 414 590.782 L 414 586.982 C 414 586.982 411.025 579.382 401.25 579.382 Z  M 329 598.382 L 329 636.382 L 414 636.382 L 414 598.382 L 329 598.382 Z  M 343.875 605.982 L 399.125 605.982 C 399.125 609.13 401.979 611.682 405.5 611.682 L 405.5 623.082 C 401.979 623.082 399.125 625.634 399.125 628.782 L 343.875 628.782 C 343.875 625.634 341.021 623.082 337.5 623.082 L 337.5 611.682 C 341.021 611.682 343.875 609.13 343.875 605.982 Z  M 371.5 607.882 C 369.671 607.876 367.872 608.3 366.285 609.113 L 366.273 609.113 L 366.204 609.128 L 366.136 609.189 L 366.102 609.204 L 366.073 609.204 L 366.073 609.219 C 363.314 610.69 361.442 613.192 360.973 616.033 L 360.973 616.181 C 360.96 616.192 360.96 616.208 360.96 616.223 L 360.96 616.238 L 360.943 616.238 L 360.943 616.447 L 360.926 616.462 L 360.926 616.477 L 360.909 616.595 C 360.859 617.139 360.859 617.685 360.909 618.229 L 360.926 618.256 L 360.926 618.286 C 360.926 618.317 360.943 618.332 360.943 618.347 L 360.943 618.526 L 360.96 618.526 L 360.96 618.571 L 360.973 618.583 L 360.973 618.746 L 360.99 618.746 L 360.99 618.792 L 361.007 618.807 L 361.007 618.94 L 361.024 618.955 L 361.024 618.985 L 361.041 619.001 L 361.041 619.058 L 361.058 619.103 L 361.058 619.134 L 361.075 619.149 L 361.075 619.251 L 361.092 619.282 L 361.092 619.297 L 361.109 619.312 L 361.109 619.343 C 361.274 620.084 361.538 620.794 361.903 621.463 L 361.903 621.478 L 361.938 621.509 L 361.938 621.524 L 361.954 621.554 L 361.972 621.569 L 361.972 621.596 L 362.005 621.626 L 362.005 621.657 L 362.023 621.657 L 362.035 621.718 L 362.069 621.759 L 362.069 621.775 L 362.103 621.79 L 362.103 621.835 L 362.137 621.851 L 362.137 621.881 L 362.171 621.908 L 362.171 621.938 L 362.188 621.953 L 362.205 621.953 L 362.205 621.999 L 362.235 622.029 C 362.732 622.816 363.348 623.526 364.063 624.15 L 364.079 624.18 L 364.097 624.195 L 364.114 624.195 L 364.13 624.21 L 364.13 624.226 L 364.148 624.241 L 364.177 624.256 L 364.177 624.267 L 364.194 624.267 L 364.211 624.298 L 364.228 624.313 L 364.245 624.313 L 364.313 624.374 L 364.313 624.389 L 364.36 624.404 L 364.394 624.446 L 364.428 624.461 L 364.496 624.522 L 364.509 624.522 L 364.526 624.552 L 364.526 624.568 L 364.543 624.568 L 364.577 624.583 L 364.594 624.583 L 364.594 624.609 L 364.628 624.625 L 364.645 624.625 C 365.41 625.221 366.273 625.696 367.216 626.069 L 367.267 626.107 L 367.318 626.107 L 367.335 626.126 L 367.365 626.126 L 367.399 626.156 L 367.433 626.156 L 367.45 626.167 L 367.501 626.167 L 367.501 626.183 L 367.53 626.183 L 367.547 626.198 L 367.598 626.228 L 367.666 626.243 C 368.857 626.661 370.157 626.882 371.5 626.882 L 371.895 626.882 C 373.31 626.821 374.658 626.54 375.882 626.05 L 375.933 626.019 L 375.95 626.008 L 375.984 625.993 L 376.018 625.993 L 376.03 625.977 L 376.047 625.977 L 376.082 625.962 L 376.082 625.947 L 376.098 625.947 L 376.133 625.932 L 376.149 625.932 L 376.166 625.917 L 376.196 625.901 L 376.213 625.886 L 376.247 625.871 C 377.161 625.472 378.007 624.936 378.755 624.328 L 378.806 624.283 L 378.806 624.271 L 378.823 624.256 L 378.84 624.256 L 378.852 624.241 L 378.87 624.21 L 378.886 624.21 L 378.886 624.195 L 378.921 624.18 L 378.921 624.165 L 378.938 624.165 L 378.972 624.134 L 379.005 624.093 L 379.052 624.062 L 379.069 624.047 L 379.086 624.017 L 379.103 624.017 L 379.137 623.986 L 379.137 623.971 L 379.171 623.956 L 379.269 623.868 L 379.269 623.853 C 379.949 623.2 380.544 622.443 380.995 621.626 L 381.011 621.596 L 381.028 621.581 L 381.046 621.581 L 381.046 621.554 L 381.063 621.539 L 381.063 621.524 L 381.079 621.493 L 381.079 621.478 L 381.097 621.478 L 381.114 621.448 L 381.114 621.433 L 381.13 621.421 L 381.13 621.391 L 381.148 621.36 L 381.16 621.345 L 381.194 621.284 L 381.194 621.243 L 381.211 621.243 L 381.211 621.227 L 381.228 621.212 L 381.228 621.197 L 381.262 621.167 L 381.262 621.121 L 381.279 621.106 L 381.279 621.079 L 381.296 621.079 L 381.313 621.064 L 381.313 621.049 C 381.64 620.35 381.868 619.617 381.993 618.868 L 381.993 618.852 L 382.01 618.822 L 382.01 618.761 C 382.027 618.746 382.027 618.731 382.027 618.719 L 382.027 618.689 L 382.04 618.659 L 382.04 618.583 L 382.057 618.541 L 382.057 618.362 L 382.074 618.347 L 382.074 618.21 L 382.091 618.184 L 382.091 618.168 C 382.142 617.678 382.142 617.203 382.108 616.713 L 382.108 616.683 L 382.074 616.55 L 382.057 616.371 C 382.057 616.314 382.057 616.257 382.04 616.192 L 382.04 616.135 C 382.027 616.075 382.027 616.018 382.01 615.957 L 381.993 615.881 L 381.976 615.717 L 381.925 615.584 L 381.891 615.406 L 381.874 615.33 C 381.204 612.633 379.26 610.328 376.545 609.01 L 376.481 608.995 L 376.349 608.919 L 376.264 608.893 C 374.865 608.266 373.328 607.921 371.764 607.882 L 371.5 607.882 Z " fill="rgb(0,0,0)"/></svg>